<mxfile host="app.diagrams.net" agent="Mozilla/5.0 (Windows NT 10.0; Win64; x64) AppleWebKit/537.36 (KHTML, like Gecko) Chrome/136.0.0.0 Safari/537.36" version="27.0.6">
  <diagram name="Page-1" id="0vgGUvz-tyRNQXV5yyYD">
    <mxGraphModel dx="872" dy="439" grid="1" gridSize="10" guides="1" tooltips="1" connect="1" arrows="1" fold="1" page="1" pageScale="1" pageWidth="827" pageHeight="1169" math="0" shadow="0">
      <root>
        <mxCell id="0" />
        <mxCell id="1" parent="0" />
        <mxCell id="WblKOHh3LuLRpKAMTTwq-1" value="SYSTEM" style="swimlane;whiteSpace=wrap;html=1;" vertex="1" parent="1">
          <mxGeometry x="400" y="40" width="200" height="760" as="geometry" />
        </mxCell>
        <mxCell id="WblKOHh3LuLRpKAMTTwq-8" value="log disruption" style="rounded=1;whiteSpace=wrap;html=1;" vertex="1" parent="WblKOHh3LuLRpKAMTTwq-1">
          <mxGeometry x="40" y="30" width="120" height="40" as="geometry" />
        </mxCell>
        <mxCell id="WblKOHh3LuLRpKAMTTwq-10" value="send alert" style="rounded=1;whiteSpace=wrap;html=1;" vertex="1" parent="WblKOHh3LuLRpKAMTTwq-1">
          <mxGeometry x="40" y="110" width="120" height="30" as="geometry" />
        </mxCell>
        <mxCell id="WblKOHh3LuLRpKAMTTwq-18" value="get disruption details" style="rounded=1;whiteSpace=wrap;html=1;" vertex="1" parent="WblKOHh3LuLRpKAMTTwq-1">
          <mxGeometry x="40" y="320" width="120" height="50" as="geometry" />
        </mxCell>
        <mxCell id="WblKOHh3LuLRpKAMTTwq-21" value="calculate alternatives" style="rounded=1;whiteSpace=wrap;html=1;" vertex="1" parent="WblKOHh3LuLRpKAMTTwq-1">
          <mxGeometry x="40" y="460" width="120" height="50" as="geometry" />
        </mxCell>
        <mxCell id="WblKOHh3LuLRpKAMTTwq-3" value="MOBILE APP" style="swimlane;whiteSpace=wrap;html=1;" vertex="1" parent="1">
          <mxGeometry x="600" y="40" width="200" height="760" as="geometry" />
        </mxCell>
        <mxCell id="WblKOHh3LuLRpKAMTTwq-13" value="show disruption alert" style="rounded=1;whiteSpace=wrap;html=1;" vertex="1" parent="WblKOHh3LuLRpKAMTTwq-3">
          <mxGeometry x="40" y="140" width="120" height="40" as="geometry" />
        </mxCell>
        <mxCell id="WblKOHh3LuLRpKAMTTwq-16" value="request alternative" style="rounded=1;whiteSpace=wrap;html=1;" vertex="1" parent="WblKOHh3LuLRpKAMTTwq-3">
          <mxGeometry x="40" y="270" width="120" height="40" as="geometry" />
        </mxCell>
        <mxCell id="WblKOHh3LuLRpKAMTTwq-22" value="display alternative routes" style="rounded=1;whiteSpace=wrap;html=1;" vertex="1" parent="WblKOHh3LuLRpKAMTTwq-3">
          <mxGeometry x="40" y="510" width="120" height="50" as="geometry" />
        </mxCell>
        <mxCell id="WblKOHh3LuLRpKAMTTwq-4" value="PASSENGER" style="swimlane;whiteSpace=wrap;html=1;" vertex="1" parent="1">
          <mxGeometry x="10" y="40" width="190" height="760" as="geometry" />
        </mxCell>
        <mxCell id="WblKOHh3LuLRpKAMTTwq-7" value="" style="edgeStyle=orthogonalEdgeStyle;rounded=0;orthogonalLoop=1;jettySize=auto;html=1;" edge="1" parent="WblKOHh3LuLRpKAMTTwq-4" source="WblKOHh3LuLRpKAMTTwq-5" target="WblKOHh3LuLRpKAMTTwq-6">
          <mxGeometry relative="1" as="geometry" />
        </mxCell>
        <mxCell id="WblKOHh3LuLRpKAMTTwq-5" value="" style="ellipse;whiteSpace=wrap;html=1;aspect=fixed;" vertex="1" parent="WblKOHh3LuLRpKAMTTwq-4">
          <mxGeometry x="75" y="30" width="40" height="40" as="geometry" />
        </mxCell>
        <mxCell id="WblKOHh3LuLRpKAMTTwq-6" value="receive disruption level" style="rounded=1;whiteSpace=wrap;html=1;" vertex="1" parent="WblKOHh3LuLRpKAMTTwq-4">
          <mxGeometry x="35" y="130" width="120" height="40" as="geometry" />
        </mxCell>
        <mxCell id="WblKOHh3LuLRpKAMTTwq-26" value="" style="edgeStyle=orthogonalEdgeStyle;rounded=0;orthogonalLoop=1;jettySize=auto;html=1;" edge="1" parent="WblKOHh3LuLRpKAMTTwq-4" source="WblKOHh3LuLRpKAMTTwq-23" target="WblKOHh3LuLRpKAMTTwq-25">
          <mxGeometry relative="1" as="geometry" />
        </mxCell>
        <mxCell id="WblKOHh3LuLRpKAMTTwq-23" value="view alternative routes" style="rounded=1;whiteSpace=wrap;html=1;" vertex="1" parent="WblKOHh3LuLRpKAMTTwq-4">
          <mxGeometry x="35" y="545" width="120" height="40" as="geometry" />
        </mxCell>
        <mxCell id="WblKOHh3LuLRpKAMTTwq-28" value="" style="edgeStyle=orthogonalEdgeStyle;rounded=0;orthogonalLoop=1;jettySize=auto;html=1;" edge="1" parent="WblKOHh3LuLRpKAMTTwq-4" source="WblKOHh3LuLRpKAMTTwq-25" target="WblKOHh3LuLRpKAMTTwq-27">
          <mxGeometry relative="1" as="geometry" />
        </mxCell>
        <mxCell id="WblKOHh3LuLRpKAMTTwq-25" value="select best alternative" style="rounded=1;whiteSpace=wrap;html=1;" vertex="1" parent="WblKOHh3LuLRpKAMTTwq-4">
          <mxGeometry x="35" y="620" width="120" height="40" as="geometry" />
        </mxCell>
        <mxCell id="WblKOHh3LuLRpKAMTTwq-27" value="" style="ellipse;html=1;shape=endState;fillColor=#000000;strokeColor=#000000;" vertex="1" parent="WblKOHh3LuLRpKAMTTwq-4">
          <mxGeometry x="75" y="720" width="40" height="40" as="geometry" />
        </mxCell>
        <mxCell id="WblKOHh3LuLRpKAMTTwq-2" value="DATABASE" style="swimlane;whiteSpace=wrap;html=1;" vertex="1" parent="1">
          <mxGeometry x="200" y="40" width="200" height="760" as="geometry" />
        </mxCell>
        <mxCell id="WblKOHh3LuLRpKAMTTwq-9" value="store disruption" style="rounded=1;whiteSpace=wrap;html=1;" vertex="1" parent="WblKOHh3LuLRpKAMTTwq-2">
          <mxGeometry x="30" y="40" width="120" height="40" as="geometry" />
        </mxCell>
        <mxCell id="WblKOHh3LuLRpKAMTTwq-20" value="provide affected services" style="rounded=1;whiteSpace=wrap;html=1;" vertex="1" parent="WblKOHh3LuLRpKAMTTwq-2">
          <mxGeometry x="30" y="390" width="120" height="50" as="geometry" />
        </mxCell>
        <mxCell id="WblKOHh3LuLRpKAMTTwq-11" value="" style="edgeStyle=orthogonalEdgeStyle;rounded=0;orthogonalLoop=1;jettySize=auto;html=1;" edge="1" parent="1" source="WblKOHh3LuLRpKAMTTwq-8" target="WblKOHh3LuLRpKAMTTwq-9">
          <mxGeometry relative="1" as="geometry" />
        </mxCell>
        <mxCell id="WblKOHh3LuLRpKAMTTwq-12" value="" style="endArrow=classic;html=1;rounded=0;exitX=0.5;exitY=1;exitDx=0;exitDy=0;entryX=0;entryY=0.5;entryDx=0;entryDy=0;" edge="1" parent="1" source="WblKOHh3LuLRpKAMTTwq-9" target="WblKOHh3LuLRpKAMTTwq-10">
          <mxGeometry width="50" height="50" relative="1" as="geometry">
            <mxPoint x="390" y="160" as="sourcePoint" />
            <mxPoint x="440" y="110" as="targetPoint" />
          </mxGeometry>
        </mxCell>
        <mxCell id="WblKOHh3LuLRpKAMTTwq-14" value="" style="endArrow=classic;html=1;rounded=0;entryX=0;entryY=0.5;entryDx=0;entryDy=0;exitX=1;exitY=0.5;exitDx=0;exitDy=0;" edge="1" parent="1" source="WblKOHh3LuLRpKAMTTwq-10" target="WblKOHh3LuLRpKAMTTwq-13">
          <mxGeometry width="50" height="50" relative="1" as="geometry">
            <mxPoint x="390" y="160" as="sourcePoint" />
            <mxPoint x="440" y="110" as="targetPoint" />
          </mxGeometry>
        </mxCell>
        <mxCell id="WblKOHh3LuLRpKAMTTwq-15" value="" style="endArrow=classic;html=1;rounded=0;exitX=0;exitY=0.75;exitDx=0;exitDy=0;entryX=1;entryY=0.5;entryDx=0;entryDy=0;" edge="1" parent="1" source="WblKOHh3LuLRpKAMTTwq-13" target="WblKOHh3LuLRpKAMTTwq-6">
          <mxGeometry width="50" height="50" relative="1" as="geometry">
            <mxPoint x="390" y="160" as="sourcePoint" />
            <mxPoint x="440" y="110" as="targetPoint" />
          </mxGeometry>
        </mxCell>
        <mxCell id="WblKOHh3LuLRpKAMTTwq-17" value="" style="endArrow=classic;html=1;rounded=0;exitX=0.5;exitY=1;exitDx=0;exitDy=0;" edge="1" parent="1" source="WblKOHh3LuLRpKAMTTwq-6" target="WblKOHh3LuLRpKAMTTwq-16">
          <mxGeometry width="50" height="50" relative="1" as="geometry">
            <mxPoint x="390" y="330" as="sourcePoint" />
            <mxPoint x="440" y="280" as="targetPoint" />
            <Array as="points">
              <mxPoint x="340" y="250" />
            </Array>
          </mxGeometry>
        </mxCell>
        <mxCell id="WblKOHh3LuLRpKAMTTwq-19" value="" style="endArrow=classic;html=1;rounded=0;exitX=0;exitY=1;exitDx=0;exitDy=0;entryX=1;entryY=0.5;entryDx=0;entryDy=0;" edge="1" parent="1" source="WblKOHh3LuLRpKAMTTwq-16" target="WblKOHh3LuLRpKAMTTwq-18">
          <mxGeometry width="50" height="50" relative="1" as="geometry">
            <mxPoint x="390" y="290" as="sourcePoint" />
            <mxPoint x="440" y="240" as="targetPoint" />
          </mxGeometry>
        </mxCell>
        <mxCell id="WblKOHh3LuLRpKAMTTwq-29" value="end" style="text;html=1;align=center;verticalAlign=middle;resizable=0;points=[];autosize=1;strokeColor=none;fillColor=none;" vertex="1" parent="1">
          <mxGeometry x="120" y="768" width="40" height="30" as="geometry" />
        </mxCell>
        <mxCell id="WblKOHh3LuLRpKAMTTwq-30" value="start" style="text;html=1;align=center;verticalAlign=middle;resizable=0;points=[];autosize=1;strokeColor=none;fillColor=none;" vertex="1" parent="1">
          <mxGeometry x="125" y="78" width="50" height="30" as="geometry" />
        </mxCell>
        <mxCell id="WblKOHh3LuLRpKAMTTwq-32" value="" style="endArrow=classic;html=1;rounded=0;exitX=0;exitY=0.5;exitDx=0;exitDy=0;entryX=1;entryY=0.5;entryDx=0;entryDy=0;" edge="1" parent="1" source="WblKOHh3LuLRpKAMTTwq-18" target="WblKOHh3LuLRpKAMTTwq-20">
          <mxGeometry width="50" height="50" relative="1" as="geometry">
            <mxPoint x="390" y="520" as="sourcePoint" />
            <mxPoint x="440" y="470" as="targetPoint" />
          </mxGeometry>
        </mxCell>
        <mxCell id="WblKOHh3LuLRpKAMTTwq-33" value="" style="endArrow=classic;html=1;rounded=0;exitX=0.5;exitY=1;exitDx=0;exitDy=0;entryX=0;entryY=0.5;entryDx=0;entryDy=0;" edge="1" parent="1" source="WblKOHh3LuLRpKAMTTwq-20" target="WblKOHh3LuLRpKAMTTwq-21">
          <mxGeometry width="50" height="50" relative="1" as="geometry">
            <mxPoint x="390" y="520" as="sourcePoint" />
            <mxPoint x="440" y="470" as="targetPoint" />
          </mxGeometry>
        </mxCell>
        <mxCell id="WblKOHh3LuLRpKAMTTwq-34" value="" style="endArrow=classic;html=1;rounded=0;entryX=0;entryY=0.5;entryDx=0;entryDy=0;exitX=0.5;exitY=1;exitDx=0;exitDy=0;" edge="1" parent="1" source="WblKOHh3LuLRpKAMTTwq-21" target="WblKOHh3LuLRpKAMTTwq-22">
          <mxGeometry width="50" height="50" relative="1" as="geometry">
            <mxPoint x="390" y="620" as="sourcePoint" />
            <mxPoint x="440" y="570" as="targetPoint" />
            <Array as="points">
              <mxPoint x="500" y="575" />
            </Array>
          </mxGeometry>
        </mxCell>
        <mxCell id="WblKOHh3LuLRpKAMTTwq-35" value="" style="endArrow=classic;html=1;rounded=0;exitX=0.5;exitY=1;exitDx=0;exitDy=0;entryX=1;entryY=0.5;entryDx=0;entryDy=0;" edge="1" parent="1" source="WblKOHh3LuLRpKAMTTwq-22" target="WblKOHh3LuLRpKAMTTwq-23">
          <mxGeometry width="50" height="50" relative="1" as="geometry">
            <mxPoint x="390" y="620" as="sourcePoint" />
            <mxPoint x="440" y="570" as="targetPoint" />
            <Array as="points">
              <mxPoint x="430" y="630" />
            </Array>
          </mxGeometry>
        </mxCell>
      </root>
    </mxGraphModel>
  </diagram>
</mxfile>
